<?xml version="1.0" encoding="UTF-8"?>
<svg version="1.1" xmlns="http://www.w3.org/2000/svg" width="1024" height="1024">
<path d="M0 0 C337.92 0 675.84 0 1024 0 C1024 337.92 1024 675.84 1024 1024 C686.08 1024 348.16 1024 0 1024 C0 686.08 0 348.16 0 0 Z " fill="#FDFDFD" transform="translate(0,0)"/>
<path d="M0 0 C0.69005127 0.00176239 1.38010254 0.00352478 2.09106445 0.00534058 C34.01530163 0.1857891 62.1106867 12.70812247 85.125 34.75 C105.36839091 55.72791163 116.90833941 83.4459488 118.4375 112.5 C118.51677734 113.88251953 118.51677734 113.88251953 118.59765625 115.29296875 C119.41892723 143.46613403 109.54279805 173.04324418 90.5625 194.0625 C89.80195313 194.86816406 89.04140625 195.67382812 88.2578125 196.50390625 C86.38773631 198.37265788 86.38773631 198.37265788 85.4375 200.5 C84.7775 200.5 84.1175 200.5 83.4375 200.5 C83.4375 201.16 83.4375 201.82 83.4375 202.5 C58.78898966 225.50840034 28.23655693 236.62574487 -5.23828125 235.78125 C-38.42449731 234.35618436 -66.66343786 218.30170328 -88.90869141 194.35644531 C-97.04187198 185.226728 -102.46795527 174.51316194 -107.5625 163.5 C-108.17931641 162.21029297 -108.17931641 162.21029297 -108.80859375 160.89453125 C-120.85430549 133.66278604 -118.80265397 100.96326164 -108.44677734 73.70214844 C-102.38853796 58.61509176 -93.7071489 46.31768276 -82.5625 34.5 C-81.95019531 33.82324219 -81.33789062 33.14648438 -80.70703125 32.44921875 C-60.212274 10.64349622 -29.38912928 -0.14233333 0 0 Z " fill="#00AEEE" transform="translate(225.5625,388.5)"/>
<path d="M0 0 C1.00893311 0.00829834 2.01786621 0.01659668 3.05737305 0.02514648 C16.62265636 0.33163877 26.92647138 4.08638486 36.90625 13.5390625 C47.3985827 24.61865262 51.80398923 38.62423024 51.890625 53.66015625 C51.89632507 54.44208847 51.90202515 55.22402069 51.90789795 56.02964783 C51.91730886 57.68112859 51.92386631 59.33262781 51.92773438 60.98413086 C51.9373769 63.46828516 51.96841066 65.95158846 52 68.43554688 C52.11663616 85.66996941 49.22716011 101.73778672 37.125 114.875 C25.0139573 126.06434995 10.87110316 129.09008967 -5.1328125 128.6796875 C-17.26095664 128.12616624 -29.2884066 123.47467843 -38.25 115.125 C-44.02701977 108.64903215 -47.51120346 101.57734247 -50.125 93.375 C-50.4355835 92.40252319 -50.4355835 92.40252319 -50.75244141 91.41040039 C-56.73756279 71.31965384 -55.00734465 44.96117914 -45.7421875 26.26953125 C-38.98126501 14.06652092 -30.04266302 6.23787288 -16.6328125 1.76171875 C-11.06916101 0.18223182 -5.75829169 -0.06125329 0 0 Z " fill="#012658" transform="translate(754.3125,436.5625)"/>
<path d="M0 0 C8.25 0 16.5 0 25 0 C27.21087277 4.10281011 29.41979988 8.20664035 31.625 12.3125 C31.96091156 12.93791687 32.29682312 13.56333374 32.64291382 14.20770264 C37.61473858 23.47235129 42.49728085 32.77780988 47.3125 42.125 C53.56836737 54.25884003 59.97501188 66.29168647 67 78 C67.33 52.26 67.66 26.52 68 0 C75.59 0 83.18 0 91 0 C91 41.25 91 82.5 91 125 C82.75 125 74.5 125 66 125 C57.65073515 109.82877485 49.57284209 94.54406301 41.63232422 79.15576172 C39.25151547 74.55295976 36.84950689 69.96151675 34.4375 65.375 C34.0564209 64.64837158 33.6753418 63.92174316 33.28271484 63.1730957 C30.59516631 58.06961893 27.80298504 53.04537308 25 48 C24.67 73.41 24.34 98.82 24 125 C16.08 125 8.16 125 0 125 C0 83.75 0 42.5 0 0 Z " fill="#002758" transform="translate(822,438)"/>
<path d="M0 0 C7.59 0 15.18 0 23 0 C23.0093457 2.5778833 23.01869141 5.1557666 23.02832031 7.81176758 C23.06219788 16.36140187 23.11780646 24.91079753 23.18390274 33.46024036 C23.22328926 38.64009112 23.25552092 43.8197741 23.27099609 48.99975586 C23.28622093 54.00556508 23.32076931 59.01091281 23.36830902 64.01651573 C23.38306293 65.91927754 23.39103755 67.82210526 23.39188385 69.72492409 C23.40094724 79.89165663 23.53094959 88.63943985 28 98 C28.33 98.99 28.66 99.98 29 101 C30.78228936 102.14209817 30.78228936 102.14209817 33 103 C34.09634766 103.51240234 34.09634766 103.51240234 35.21484375 104.03515625 C41.73957686 106.29547754 50.25798661 106.2313119 56.625 103.4375 C62.07649115 100.12933015 63.8970974 94.94658073 65.56162643 89.02607536 C66.3373185 85.44098106 66.30883147 81.874341 66.31884766 78.21899414 C66.32889328 77.36941132 66.3389389 76.51982849 66.34928894 75.64450073 C66.37998803 72.85805896 66.39711895 70.07171269 66.4140625 67.28515625 C66.43278484 65.34459113 66.45235904 63.40403405 66.4727478 61.46348572 C66.52396237 56.37218991 66.56364514 51.28086773 66.60089111 46.18945312 C66.6409978 40.98756445 66.69205969 35.78578443 66.7421875 30.58398438 C66.83882042 20.38939185 66.92225224 10.19475406 67 0 C74.59 0 82.18 0 90 0 C90.06795284 11.80532565 90.12291809 23.61052001 90.15543652 35.41599751 C90.17104883 40.89858111 90.19220574 46.3810232 90.22631836 51.86352539 C90.25907038 57.16089952 90.27688632 62.45813808 90.28463173 67.7556057 C90.2901469 69.77007364 90.30091625 71.78453472 90.31719017 73.79894447 C90.4377403 89.34843271 89.88401191 103.51583104 78.9375 115.6875 C67.8259998 126.14252207 53.93678389 127.57855308 39.4765625 127.30859375 C28.58956929 126.86039331 19.11844652 123.47639012 11 116 C6.01479229 110.3080048 2.77239562 104.34862491 1 97 C0.82686783 96.31746658 0.65373566 95.63493317 0.47535706 94.93171692 C-0.17264287 90.93524241 -0.13077845 87.02906115 -0.11352539 82.98706055 C-0.11367142 82.08900192 -0.11381744 81.1909433 -0.1139679 80.26567078 C-0.11327287 77.30599528 -0.10549965 74.34638321 -0.09765625 71.38671875 C-0.09579061 69.33120254 -0.0943674 67.27568588 -0.09336853 65.22016907 C-0.08955482 59.81642423 -0.0797343 54.41270637 -0.06866455 49.00897217 C-0.0584258 43.49231328 -0.05386563 37.97565003 -0.04882812 32.45898438 C-0.03811101 21.63930917 -0.02052348 10.81966105 0 0 Z " fill="#002758" transform="translate(463,438)"/>
<path d="M0 0 C10.56 0 21.12 0 32 0 C30.22309276 5.7621096 28.44534337 11.52394627 26.66552734 17.28515625 C26.06185591 19.24008581 25.458655 21.19516073 24.85595703 23.15039062 C23.98337233 25.98086438 23.10902657 28.81078934 22.234375 31.640625 C21.97066101 32.49738831 21.70694702 33.35415161 21.4352417 34.23687744 C19.38488936 40.86164258 17.19453639 47.41639082 15 54 C33.81 54 52.62 54 72 54 C70.1333376 57.7333248 68.01167779 61.1131902 65.6875 64.5625 C65.24873535 65.21669922 64.8099707 65.87089844 64.35791016 66.54492188 C55.30817556 80.00754552 46.08107044 93.34706111 36.80664062 106.65551758 C32.97643382 112.15289853 29.16195533 117.66024723 25.375 123.1875 C21.15967364 129.33686054 16.90037361 135.45474383 12.625 141.5625 C12.04153809 142.39612061 11.45807617 143.22974121 10.85693359 144.08862305 C7.59478633 148.7428519 4.31115441 153.38050556 1 158 C-0.20572003 154.38283992 0.30591408 153.16133062 1.37890625 149.55078125 C1.71672119 148.4107666 2.05453613 147.27075195 2.40258789 146.09619141 C2.78535889 144.84757324 3.16812988 143.59895508 3.5625 142.3125 C3.85204056 141.35497833 3.85204056 141.35497833 4.14743042 140.37811279 C9.80245316 121.70817292 16.47263789 103.37800982 23 85 C7.16 85 -8.68 85 -25 85 C-23.78652906 78.93264529 -22.63557175 73.36885332 -20.87695312 67.51831055 C-20.57409645 66.50404243 -20.57409645 66.50404243 -20.26512146 65.46928406 C-19.60828176 63.27373177 -18.94494236 61.08020829 -18.28125 58.88671875 C-17.81773887 57.34367277 -17.35456943 55.80052412 -16.89172363 54.25727844 C-15.92626299 51.041668 -14.95775346 47.82699812 -13.98681641 44.61303711 C-12.74472531 40.501157 -11.50874123 36.38747294 -10.27481842 32.27313519 C-9.32097452 29.09410919 -8.36473958 25.91580661 -7.40769958 22.73774147 C-6.9510607 21.22089831 -6.49496894 19.70389032 -6.03944397 18.18671227 C-5.40294595 16.06867819 -4.76343167 13.95157847 -4.12304688 11.8347168 C-3.76045776 10.63243942 -3.39786865 9.43016205 -3.02429199 8.19145203 C-2.13481636 5.42005594 -1.08098315 2.70245788 0 0 Z " fill="#FBFDFD" transform="translate(206,432)"/>
<path d="M0 0 C24.09 0 48.18 0 73 0 C73 6.93 73 13.86 73 21 C56.83 21 40.66 21 24 21 C24 31.89 24 42.78 24 54 C36.87 54 49.74 54 63 54 C63 60.93 63 67.86 63 75 C50.13 75 37.26 75 24 75 C24 91.5 24 108 24 125 C16.08 125 8.16 125 0 125 C0 83.75 0 42.5 0 0 Z " fill="#012859" transform="translate(573,438)"/>
<path d="M0 0 C7.56267787 5.82606295 10.13584913 14.56737151 11.5859375 23.68359375 C13.39952899 39.84487945 14.50980555 61.49546491 4 75 C-0.62966193 79.90574269 -4.87923669 82.74916621 -11.7421875 83.30078125 C-13.11972104 83.31526774 -14.49740534 83.31893736 -15.875 83.3125 C-16.55691406 83.32861328 -17.23882813 83.34472656 -17.94140625 83.36132812 C-25.81674535 83.36882845 -31.5288698 80.20979948 -37.2109375 74.93359375 C-40.04148306 71.87437966 -41.6250008 68.91907986 -43 65 C-43.29777344 64.15695312 -43.59554687 63.31390625 -43.90234375 62.4453125 C-48.54642444 46.30873721 -48.29882305 25.32527078 -40.8125 10.125 C-36.65546513 3.37447174 -31.04438119 -1.45273803 -23.34375 -3.5625 C-14.99709518 -5.12054223 -7.51711842 -4.0583216 0 0 Z " fill="#FBFCFC" transform="translate(771,461)"/>
<path d="M0 0 C7.59 0 15.18 0 23 0 C23 34.32 23 68.64 23 104 C37.85 104 52.7 104 68 104 C68 110.93 68 117.86 68 125 C45.56 125 23.12 125 0 125 C0 83.75 0 42.5 0 0 Z " fill="#002859" transform="translate(386,438)"/>
<path d="M0 0 C7.59 0 15.18 0 23 0 C23 41.25 23 82.5 23 125 C15.41 125 7.82 125 0 125 C0 83.75 0 42.5 0 0 Z " fill="#002859" transform="translate(661,438)"/>
<path d="M0 0 C24.09 0 48.18 0 73 0 C73 6.93 73 13.86 73 21 C56.5 21 40 21 23 21 C23 20.67 23 20.34 23 20 C38.84 20 54.68 20 71 20 C71 14.06 71 8.12 71 2 C48.23 2 25.46 2 2 2 C2 42.26 2 82.52 2 124 C8.6 124 15.2 124 22 124 C22 107.83 22 91.66 22 75 C22.33 75 22.66 75 23 75 C23.33 91.5 23.66 108 24 125 C16.08 125 8.16 125 0 125 C0 83.75 0 42.5 0 0 Z " fill="#26355E" transform="translate(573,438)"/>
<path d="M0 0 C7.59 0 15.18 0 23 0 C23 41.25 23 82.5 23 125 C16.4 125 9.8 125 3 125 C3 124.67 3 124.34 3 124 C9.27 124 15.54 124 22 124 C22 83.74 22 43.48 22 2 C15.4 2 8.8 2 2 2 C2 42.59 2 83.18 2 125 C1.34 125 0.68 125 0 125 C0 83.75 0 42.5 0 0 Z " fill="#030E3D" transform="translate(661,438)"/>
<path d="M0 0 C8.25 0 16.5 0 25 0 C25 0.66 25 1.32 25 2 C17.41 2 9.82 2 2 2 C2 42.26 2 82.52 2 124 C8.93 124 15.86 124 23 124 C23 98.59 23 73.18 23 47 C23.33 47 23.66 47 24 47 C24 72.74 24 98.48 24 125 C16.08 125 8.16 125 0 125 C0 83.75 0 42.5 0 0 Z " fill="#1F2E59" transform="translate(822,438)"/>
<path d="M0 0 C0.33 0 0.66 0 1 0 C1 39.93 1 79.86 1 121 C22.12 121 43.24 121 65 121 C65 115.06 65 109.12 65 103 C50.81 103 36.62 103 22 103 C22 102.67 22 102.34 22 102 C36.85 102 51.7 102 67 102 C67 108.93 67 115.86 67 123 C44.89 123 22.78 123 0 123 C0 82.41 0 41.82 0 0 Z " fill="#000E3F" transform="translate(387,440)"/>
<path d="M0 0 C7.59 0 15.18 0 23 0 C23 28.71 23 57.42 23 87 C22.67 87 22.34 87 22 87 C22 58.95 22 30.9 22 2 C15.4 2 8.8 2 2 2 C2 32.69 2 63.38 2 95 C-0.61615703 91.07576446 -0.26556915 87.76461941 -0.22705078 83.21411133 C-0.22734283 82.31634476 -0.22763489 81.41857819 -0.22793579 80.49360657 C-0.22654125 77.52298351 -0.21097415 74.55261055 -0.1953125 71.58203125 C-0.19158281 69.5236576 -0.18873563 67.46528218 -0.18673706 65.40690613 C-0.17909712 59.98665473 -0.15944549 54.56651035 -0.1373291 49.14630127 C-0.11687847 43.61642912 -0.10773702 38.08653969 -0.09765625 32.55664062 C-0.07619997 21.70437248 -0.04101484 10.85221187 0 0 Z " fill="#0D1E4C" transform="translate(463,438)"/>
<path d="M0 0 C0.33 0.66 0.66 1.32 1 2 C-0.54579053 5.63260774 -2.1008911 8.34248351 -5 11 C-6.01800576 12.31963709 -7.02248365 13.65009646 -8 15 C-8.66 14.67 -9.32 14.34 -10 14 C-6.7 9.38 -3.4 4.76 0 0 Z " fill="#07A5EC" transform="translate(253,523)"/>
<path d="M0 0 C0 3.63327194 -0.95586411 5.04735927 -3 8 C-3.99 8.66 -4.98 9.32 -6 10 C-4.6302836 6.00499382 -2.74277578 3.19990508 0 0 Z " fill="#05A2EC" transform="translate(217,575)"/>
</svg>
